<?xml version="1.0" encoding="UTF-8"?>
<svg xmlns="http://www.w3.org/2000/svg" width="32" height="32" viewBox="0 0 24 24" fill="none" stroke="#00F5C0" stroke-width="2" stroke-linecap="round" stroke-linejoin="round">
    <defs>
        <radialGradient id="glow" cx="50%" cy="50%" r="50%" fx="50%" fy="50%">
            <stop offset="0%" stop-color="#00F5C0" stop-opacity="0.3" />
            <stop offset="100%" stop-color="#00F5C0" stop-opacity="0" />
        </radialGradient>
    </defs>
    <!-- Glow Effect -->
    <circle cx="12" cy="12" r="10" fill="url(#glow)" />
    <!-- Lucide DNA Icon Paths -->
    <path d="m10 16 1.5 1.5" />
    <path d="m14 8-1.5-1.5" />
    <path d="M15 2c-1.798 1.998-2.518 3.995-2.807 5.993" />
    <path d="m16.5 10.5 1 1" />
    <path d="m17 6-2.891-2.891" />
    <path d="M2 15c6.667-6 13.333 0 20-6" />
    <path d="m20 9 .891.891" />
    <path d="M3.109 14.109 4 15" />
    <path d="m6.5 12.5 1 1" />
    <path d="m7 18 2.891 2.891" />
    <path d="M9 22c1.798-1.998 2.518-3.995 2.807-5.993" />
</svg>
